<?xml version="1.0" standalone="no"?>
<!DOCTYPE svg PUBLIC "-//W3C//DTD SVG 20010904//EN"
 "http://www.w3.org/TR/2001/REC-SVG-20010904/DTD/svg10.dtd">
<svg version="1.0" xmlns="http://www.w3.org/2000/svg"
 width="400.000000pt" height="400.000000pt" viewBox="0 0 400.000000 400.000000"
 preserveAspectRatio="xMidYMid meet">
<metadata>
Created by potrace 1.11, written by Peter Selinger 2001-2013
</metadata>
<g transform="translate(0.000000,400.000000) scale(0.100000,-0.100000)"
fill="#000000" stroke="none">
<path d="M2653 3953 c-7 -2 -13 -14 -13 -25 0 -12 -2 -19 -6 -16 -7 7 -94 -76
-94 -91 0 -6 -3 -11 -8 -11 -10 0 -122 -108 -122 -118 0 -4 -9 -14 -20 -22
-11 -8 -20 -19 -20 -25 0 -5 -14 -19 -30 -30 -16 -11 -30 -25 -30 -31 0 -9
-49 -39 -58 -34 -2 1 -12 -8 -21 -19 -26 -30 -41 -26 -41 9 0 17 -4 30 -9 30
-18 0 -41 -12 -41 -22 0 -12 -31 -39 -93 -79 -41 -27 -52 -30 -72 -21 -18 9
-24 8 -29 -4 -3 -8 -17 -19 -31 -26 -14 -6 -25 -17 -25 -25 0 -7 -3 -13 -8
-13 -4 0 -15 -17 -24 -39 -9 -21 -30 -53 -46 -71 -16 -17 -35 -44 -42 -58 -7
-15 -16 -35 -21 -44 -5 -10 -9 -25 -9 -33 0 -8 -7 -15 -15 -15 -9 0 -12 -6 -9
-15 4 -8 1 -15 -5 -15 -6 0 -11 -9 -11 -20 0 -11 -4 -20 -10 -20 -5 0 -10 -11
-10 -25 0 -14 -4 -25 -10 -25 -5 0 -10 -7 -10 -15 0 -8 -4 -15 -10 -15 -5 0
-10 -9 -10 -20 0 -11 -4 -20 -10 -20 -5 0 -10 -11 -10 -25 0 -14 -5 -24 -11
-22 -6 1 -13 -6 -14 -17 -2 -10 -8 -23 -14 -29 -6 -6 -11 -19 -11 -29 0 -10
-4 -18 -10 -18 -5 0 -10 -9 -10 -20 0 -11 -3 -20 -7 -20 -9 0 -33 -49 -33 -67
0 -7 -4 -13 -10 -13 -5 0 -10 -9 -10 -20 0 -11 -4 -20 -10 -20 -5 0 -10 -6
-10 -13 0 -18 -24 -67 -32 -67 -5 0 -8 -9 -8 -19 0 -11 -4 -23 -10 -26 -5 -3
-10 -15 -10 -26 0 -10 -4 -19 -10 -19 -5 0 -10 -9 -10 -20 0 -11 -7 -20 -15
-20 -9 0 -15 -9 -15 -25 0 -14 -4 -25 -10 -25 -5 0 -10 -9 -10 -20 0 -11 -4
-20 -10 -20 -5 0 -10 -11 -10 -25 0 -15 -6 -25 -15 -25 -9 0 -12 -6 -9 -15 4
-8 1 -15 -5 -15 -6 0 -11 -9 -11 -19 0 -11 -4 -23 -10 -26 -6 -3 -10 -15 -10
-26 0 -10 -4 -19 -10 -19 -5 0 -10 -9 -10 -20 0 -11 -4 -20 -10 -20 -5 0 -10
-11 -10 -25 0 -20 -5 -25 -25 -25 -20 0 -25 5 -25 25 0 14 -4 25 -10 25 -5 0
-10 14 -10 30 0 17 -4 30 -10 30 -5 0 -10 11 -10 24 0 13 -7 26 -15 30 -8 3
-15 17 -15 31 0 16 -4 24 -11 19 -7 -4 -10 4 -7 25 1 18 -2 35 -7 39 -16 11
-35 50 -35 71 0 11 -4 23 -10 26 -5 3 -10 22 -10 41 0 25 -4 34 -17 34 -13 0
-14 3 -6 11 13 13 8 32 -19 71 -10 14 -18 36 -18 47 0 12 -4 21 -10 21 -5 0
-10 6 -10 14 0 8 -5 16 -11 18 -6 2 -11 20 -11 41 0 20 -3 37 -7 37 -5 0 -8
14 -9 32 0 17 -8 35 -16 40 -10 6 -16 23 -16 48 0 22 -4 40 -10 40 -5 0 -10
12 -10 26 0 14 -4 23 -9 20 -5 -3 -9 16 -9 42 -1 26 -6 48 -12 50 -5 2 -10 25
-10 51 0 35 -5 50 -20 61 -11 8 -20 19 -20 25 0 5 -14 19 -30 30 -16 11 -30
26 -30 33 0 7 -8 12 -18 11 -41 -4 -52 1 -52 25 0 19 -4 22 -25 18 -14 -2 -25
-8 -25 -11 0 -4 -7 -8 -15 -8 -8 0 -15 3 -15 7 0 4 -21 10 -47 13 -27 4 -58 8
-70 11 -14 3 -23 -1 -26 -13 -3 -14 -13 -18 -41 -16 -20 1 -36 -2 -36 -7 0
-12 -48 -10 -55 2 -4 6 -10 8 -15 5 -5 -3 -11 -1 -15 5 -3 5 -19 10 -36 10
-26 0 -29 -3 -29 -30 0 -20 -10 -41 -30 -62 -19 -19 -30 -41 -30 -59 0 -26 -4
-29 -30 -29 -30 0 -30 0 -30 -56 0 -56 -12 -93 -36 -107 -19 -11 -18 -33 1
-41 8 -3 15 -16 15 -30 0 -14 5 -28 10 -31 6 -3 10 -15 10 -25 0 -10 9 -22 20
-25 11 -3 20 -11 20 -16 0 -5 8 -9 17 -7 12 2 19 -4 21 -19 3 -19 10 -23 43
-23 34 0 39 -3 39 -23 0 -16 9 -28 25 -35 14 -6 25 -19 25 -27 0 -9 5 -13 10
-10 6 3 10 -1 10 -9 0 -9 5 -16 10 -16 6 0 10 -7 10 -15 0 -8 5 -15 10 -15 6
0 10 -11 10 -25 0 -14 5 -25 10 -25 6 0 10 -9 10 -20 0 -11 5 -20 11 -20 6 0
9 -5 7 -12 -3 -7 6 -22 19 -34 13 -12 23 -31 23 -43 0 -11 5 -21 10 -21 6 0
10 -8 10 -19 0 -10 11 -30 25 -45 14 -15 25 -31 25 -37 0 -5 10 -10 23 -11 12
0 28 -2 35 -2 7 -1 21 -15 30 -31 9 -17 20 -31 25 -33 4 -2 7 -11 7 -21 0 -9
9 -27 20 -39 11 -12 20 -31 20 -42 0 -12 5 -18 10 -15 6 4 10 -7 10 -25 0 -18
4 -29 10 -25 6 3 10 -3 10 -15 0 -12 5 -18 10 -15 6 3 14 -5 20 -19 5 -14 13
-26 18 -26 5 0 7 -11 4 -25 -2 -15 0 -25 7 -25 6 0 11 -9 11 -20 0 -11 5 -20
10 -20 6 0 10 -7 10 -15 0 -8 5 -24 10 -35 5 -11 14 -29 20 -40 5 -11 10 -29
10 -40 0 -11 5 -29 12 -39 12 -20 4 -56 -11 -46 -5 3 -12 1 -15 -4 -4 -5 -2
-12 4 -16 5 -3 10 -21 10 -40 0 -19 4 -37 10 -40 6 -3 10 -17 10 -31 0 -13 4
-24 8 -24 13 0 13 -63 0 -71 -6 -4 -10 -30 -9 -59 1 -33 -2 -49 -9 -45 -5 3
-10 -3 -10 -14 0 -12 5 -21 10 -21 6 0 10 -6 10 -13 0 -15 73 -77 90 -77 6 0
17 -6 24 -13 8 -6 24 -19 37 -27 12 -8 33 -25 46 -37 13 -13 28 -22 34 -20 6
1 19 -13 28 -30 10 -18 21 -30 25 -26 3 3 6 -5 6 -19 0 -20 6 -27 27 -32 42
-11 211 -8 233 4 11 6 20 8 20 5 0 -4 7 0 15 7 34 31 43 36 49 31 6 -6 10 31
7 51 -1 4 -1 34 -1 65 0 31 1 70 0 88 0 17 4 34 10 38 5 3 10 33 10 65 0 32 5
62 11 66 6 3 9 15 6 25 -3 10 -1 21 4 24 4 3 6 12 2 20 -3 8 0 15 6 15 6 0 11
17 11 39 0 25 5 41 15 45 9 3 15 19 15 41 0 19 5 35 10 35 6 0 10 14 10 30 0
17 5 30 10 30 6 0 10 18 10 40 0 22 5 40 10 40 6 0 10 9 10 20 0 11 5 20 10
20 6 0 10 14 10 30 0 17 5 30 10 30 6 0 10 11 10 25 0 14 5 25 10 25 6 0 10 7
10 15 0 8 5 15 10 15 6 0 10 11 10 24 0 14 5 28 10 31 6 3 10 15 10 26 0 10 5
19 10 19 6 0 10 11 10 25 0 14 4 25 9 25 5 0 11 12 13 28 2 15 7 25 11 22 4
-3 15 11 23 30 9 19 20 43 25 52 5 10 9 25 9 33 0 8 6 15 14 15 9 0 12 7 9 20
-3 11 0 20 6 20 6 0 11 7 11 15 0 8 5 15 10 15 6 0 10 7 10 15 0 8 -4 15 -9
15 -22 0 -19 42 5 63 13 11 24 27 24 35 0 9 3 12 7 9 7 -8 33 38 33 59 0 8 5
14 10 14 6 0 10 7 10 15 0 8 7 15 15 15 8 0 15 4 15 9 0 5 14 23 30 41 17 18
30 37 30 44 0 6 17 22 38 36 46 31 52 37 81 78 12 17 29 32 37 32 8 0 14 6 14
14 0 7 14 27 30 44 17 18 30 35 30 38 0 4 14 20 30 36 17 15 30 33 30 38 0 5
9 15 20 22 11 7 20 18 20 25 0 6 5 13 11 15 6 2 12 16 12 31 0 15 4 27 10 27
13 0 36 31 37 50 0 9 9 22 20 30 11 8 20 22 20 32 0 10 5 18 10 18 6 0 10 6
10 14 0 8 14 19 30 25 17 5 30 17 30 25 0 9 5 16 10 16 6 0 10 18 10 40 0 28
-4 40 -14 40 -8 0 -17 -4 -21 -10 -3 -5 -12 -7 -20 -3 -10 3 -15 -2 -15 -17 0
-11 -4 -18 -10 -15 -5 3 -10 -1 -10 -9 0 -10 -9 -16 -25 -16 -20 0 -25 -5 -25
-24 0 -18 -5 -23 -17 -21 -10 2 -21 4 -25 4 -14 2 -8 31 6 31 8 0 13 11 13 28
-1 29 23 92 35 92 5 0 8 7 8 15 0 8 5 15 10 15 6 0 10 7 10 15 0 8 5 15 10 15
6 0 10 6 10 14 0 8 9 18 20 21 18 6 18 8 5 21 -12 12 -18 12 -35 2 -11 -7 -20
-16 -20 -20 0 -3 -16 -16 -35 -28 -19 -12 -35 -28 -35 -36 0 -8 -4 -14 -9 -14
-13 0 -24 34 -12 38 6 2 11 10 11 18 0 8 7 14 15 14 8 0 15 7 15 15 0 8 5 15
10 15 6 0 10 6 10 14 0 8 9 18 20 21 11 3 20 11 20 16 0 6 5 7 10 4 6 -4 10 7
10 25 0 18 4 29 10 25 6 -3 10 4 10 16 0 12 14 35 30 51 17 15 30 30 30 33 0
2 16 20 35 40 20 19 33 35 30 35 -3 0 -1 9 5 20 11 21 2 25 -27 13z"/>
<path d="M2535 3670 c-3 -5 -4 -10 -1 -10 2 0 11 -3 20 -6 11 -4 16 -1 16 10
0 18 -25 22 -35 6z"/>
<path d="M3850 2853 c-30 -22 -53 -32 -69 -29 -25 4 -71 -12 -71 -24 0 -11
-69 -23 -112 -21 -22 2 -38 -2 -38 -8 0 -6 -3 -10 -7 -9 -16 3 -113 -15 -113
-21 0 -3 -17 -6 -37 -6 -21 1 -45 -4 -53 -10 -19 -15 -112 -14 -131 1 -8 6
-31 10 -52 9 -21 -1 -40 2 -43 6 -3 5 -34 9 -70 9 -35 0 -64 3 -64 8 0 7 -52
6 -157 -4 -35 -4 -63 -10 -63 -14 0 -4 -17 -6 -37 -5 -21 1 -48 -5 -60 -12
-12 -8 -27 -12 -32 -9 -5 4 -12 2 -16 -4 -3 -5 -19 -10 -35 -10 -16 0 -32 -5
-35 -11 -4 -6 -13 -8 -21 -5 -8 3 -14 1 -14 -4 0 -6 -8 -10 -18 -10 -10 0 -35
-9 -57 -20 -22 -11 -45 -20 -53 -20 -7 0 -20 -7 -28 -15 -9 -8 -24 -15 -35
-15 -10 0 -19 -3 -19 -8 0 -4 -16 -16 -35 -26 -19 -11 -35 -23 -35 -28 0 -5
-4 -7 -9 -4 -9 6 -25 -4 -128 -77 -29 -20 -57 -37 -63 -37 -5 0 -10 -9 -10
-20 0 -11 -6 -20 -12 -20 -14 -1 -68 -45 -68 -55 0 -3 -9 -15 -20 -27 -11 -12
-20 -28 -20 -35 0 -8 -4 -11 -10 -8 -5 3 -10 -3 -10 -14 0 -12 -4 -21 -10 -21
-5 0 -10 -7 -10 -15 0 -8 -4 -15 -10 -15 -5 0 -10 -9 -10 -20 0 -11 -4 -20
-10 -20 -5 0 -10 -11 -10 -25 0 -15 -5 -24 -12 -23 -8 2 -14 -10 -15 -32 -3
-37 -6 -55 -16 -80 -13 -34 -13 -81 0 -91 7 -6 13 -18 13 -26 0 -7 7 -16 15
-19 8 -4 15 -10 15 -16 0 -5 6 -15 13 -22 6 -7 23 -27 36 -44 13 -18 44 -44
68 -60 23 -15 43 -31 43 -36 0 -4 7 -6 15 -3 8 4 17 2 20 -3 4 -6 22 -10 41
-10 19 0 34 -5 34 -11 0 -5 5 -7 10 -4 6 4 18 1 27 -7 18 -14 52 -18 258 -24
76 -3 144 -9 150 -13 5 -4 58 -7 118 -6 59 0 107 -3 107 -7 0 -5 31 -8 69 -8
39 0 73 -5 76 -10 4 -6 11 -8 16 -5 5 4 21 -2 37 -13 15 -11 33 -17 40 -15 6
3 12 -2 12 -10 0 -14 26 -32 42 -29 16 4 20 -48 5 -62 -8 -8 -17 -13 -20 -10
-8 9 -47 -34 -47 -52 0 -8 -4 -13 -8 -10 -5 3 -14 -3 -22 -14 -7 -10 -19 -16
-27 -13 -14 6 -53 -17 -93 -54 -14 -13 -33 -23 -42 -23 -10 0 -18 -5 -18 -12
0 -6 -3 -9 -6 -5 -4 3 -21 -1 -38 -10 -17 -10 -35 -16 -40 -15 -4 2 -13 -1
-20 -6 -6 -5 -23 -12 -38 -16 -16 -3 -28 -11 -28 -16 0 -6 -13 -10 -29 -10
-16 0 -37 -7 -45 -16 -9 -8 -20 -13 -25 -9 -5 3 -12 1 -16 -5 -3 -5 -17 -10
-31 -10 -13 0 -24 -4 -24 -10 0 -5 -9 -10 -20 -10 -11 0 -20 -5 -20 -11 0 -6
-7 -9 -15 -6 -8 4 -17 2 -20 -3 -4 -6 -15 -10 -26 -10 -10 0 -19 -4 -19 -8 0
-13 -52 -35 -85 -36 -16 -1 -36 -5 -42 -9 -7 -5 -17 -6 -22 -2 -5 3 -12 1 -16
-5 -3 -5 -15 -10 -26 -10 -10 0 -19 -4 -19 -9 0 -5 -11 -8 -25 -6 -14 1 -28
-2 -31 -6 -3 -5 -14 -9 -25 -9 -11 0 -29 -8 -40 -18 -15 -15 -80 -42 -109 -46
-3 -1 -21 -11 -40 -22 -30 -18 -78 -35 -95 -34 -6 0 -7 -1 -65 -48 -51 -41
-99 -74 -113 -76 -31 -5 -87 -28 -87 -36 0 -4 -13 -10 -30 -13 -27 -6 -43 -27
-20 -27 25 0 6 -28 -39 -58 -38 -24 -61 -32 -95 -32 -25 0 -51 -6 -59 -14 -8
-8 -42 -18 -76 -22 -33 -3 -61 -10 -61 -14 0 -4 -38 -8 -85 -8 -47 1 -85 5
-85 10 0 10 -48 8 -65 -2 -5 -4 -26 -7 -45 -8 -51 -3 -67 -10 -73 -32 -3 -13
-17 -22 -36 -26 -21 -4 -31 -12 -31 -24 0 -29 -11 -50 -26 -50 -8 0 -14 -8
-14 -18 0 -16 7 -18 58 -14 31 3 59 9 60 13 5 12 32 11 32 -1 0 -18 28 -10 33
9 3 15 12 18 38 16 26 -3 39 2 54 20 12 13 38 26 58 30 20 4 37 11 37 17 0 5
5 6 10 3 6 -4 16 -2 23 3 10 8 41 15 105 24 6 1 12 5 12 10 0 4 30 8 66 8 41
0 63 4 59 10 -4 6 14 10 47 10 30 0 59 5 64 10 7 7 16 4 29 -10 18 -19 18 -20
-3 -20 -12 0 -22 -4 -22 -10 0 -5 -11 -10 -25 -10 -14 0 -25 -4 -25 -9 0 -5
-18 -12 -40 -16 -22 -4 -40 -10 -40 -14 0 -4 -7 -8 -15 -8 -8 0 -15 4 -15 9 0
4 -7 8 -15 8 -8 0 -15 -7 -15 -15 0 -8 -9 -15 -20 -15 -11 0 -20 -7 -20 -15 0
-8 -14 -18 -32 -23 -43 -11 -49 -32 -9 -32 17 0 31 5 31 10 0 6 9 10 19 10 11
0 22 4 25 8 2 4 22 8 43 7 28 0 39 -5 41 -18 2 -12 -3 -17 -17 -17 -12 0 -21
-5 -21 -12 0 -6 -3 -9 -6 -5 -4 3 -24 -3 -45 -13 -21 -11 -52 -20 -69 -20 -16
0 -30 -5 -30 -10 0 -6 -6 -10 -12 -9 -14 2 -29 -3 -90 -28 -27 -11 -51 -14
-85 -8 -27 4 -58 8 -70 10 -13 2 -25 -1 -29 -6 -3 -5 -14 -9 -24 -9 -10 0 -25
-7 -34 -15 -8 -8 -22 -15 -30 -15 -9 0 -16 -4 -16 -10 0 -5 -7 -7 -15 -4 -9 4
-15 0 -15 -10 0 -9 -7 -16 -15 -16 -9 0 -27 -11 -41 -25 -22 -22 -30 -26 -49
-25 -3 1 -13 -6 -21 -15 -9 -8 -24 -15 -35 -15 -10 0 -19 -7 -19 -15 0 -8 -8
-15 -17 -15 -13 0 -14 -3 -6 -11 7 -7 19 -8 30 -4 10 4 27 9 38 10 11 1 38 10
60 20 22 10 47 19 55 20 8 1 26 6 40 11 14 4 28 9 33 10 4 1 9 3 12 4 3 1 8 3
13 5 15 4 48 17 62 24 8 5 25 7 37 5 12 -2 25 1 28 6 10 17 131 12 145 -5 14
-17 40 -20 40 -4 0 5 5 7 10 4 6 -3 10 -1 10 4 0 6 10 11 23 11 12 0 40 10 62
22 28 15 67 25 125 30 106 9 110 10 110 19 0 4 21 11 46 15 25 3 48 13 51 20
3 8 19 14 38 14 19 0 37 5 40 10 4 6 10 8 15 5 5 -3 11 -1 14 4 5 8 103 25
109 19 1 -2 13 7 26 19 12 11 37 23 54 25 41 6 61 12 67 19 3 3 24 9 48 13 32
5 42 3 42 -8 0 -7 -10 -17 -22 -21 -13 -4 -25 -8 -28 -9 -3 -1 -15 -5 -27 -10
-13 -4 -23 -11 -23 -15 0 -4 -6 -8 -12 -9 -22 -1 -113 -36 -119 -46 -4 -5 -13
-6 -20 -4 -7 2 -21 -3 -31 -11 -10 -9 -22 -16 -26 -17 -34 -3 -93 -27 -89 -37
4 -13 97 -18 97 -5 0 4 29 8 64 8 36 0 67 4 70 8 2 4 25 7 50 6 25 -1 46 2 46
6 0 4 25 11 55 15 30 3 55 11 55 17 0 5 7 8 15 5 8 -4 17 -2 20 3 4 6 14 10
24 10 10 0 24 7 31 15 7 8 19 15 27 15 8 0 29 11 46 24 30 22 82 42 100 38 4
-1 7 2 7 7 0 4 21 11 47 15 25 3 54 13 63 21 9 8 25 16 36 18 11 1 34 12 50
24 17 13 34 20 37 17 3 -3 16 3 28 15 13 12 32 21 44 21 11 0 29 6 40 14 11 7
32 16 48 20 19 4 27 13 27 28 0 33 77 85 97 65 3 -4 24 9 46 28 22 19 45 35
50 35 4 0 15 7 23 15 9 8 24 15 35 15 10 0 19 5 19 10 0 6 6 10 13 9 19 -3 47
12 47 26 0 18 27 28 80 28 32 0 49 6 58 19 8 10 25 18 42 18 16 0 31 4 35 10
3 5 12 7 20 3 8 -3 15 -1 15 5 0 5 16 13 35 16 19 4 35 11 35 16 0 6 8 10 18
10 10 0 35 9 57 20 22 11 44 20 51 20 6 0 22 10 35 21 40 36 68 51 79 44 5 -3
10 1 10 9 0 9 4 16 10 16 5 0 16 12 24 28 8 15 16 25 18 23 6 -7 48 10 48 20
0 6 5 7 10 4 6 -3 10 1 10 9 0 9 4 16 8 16 5 0 15 11 22 25 7 14 19 25 26 25
23 0 77 37 62 43 -10 3 -11 8 0 26 6 11 12 39 12 61 0 22 5 40 10 40 6 0 10 9
10 21 0 11 -4 17 -10 14 -6 -4 -10 9 -10 31 0 30 -8 44 -46 81 -26 24 -49 41
-52 39 -3 -3 -10 4 -16 16 -6 13 -20 24 -30 26 -11 2 -28 12 -39 23 -11 10
-35 23 -54 30 -18 6 -33 14 -33 19 0 5 -8 9 -17 9 -10 0 -38 5 -63 12 -25 6
-52 13 -60 14 -8 1 -22 5 -30 8 -23 9 -88 17 -165 20 -38 2 -77 6 -85 10 -16
6 -279 19 -392 19 -46 0 -68 4 -68 13 0 8 -18 11 -55 10 -30 -1 -55 2 -55 6 0
5 -18 9 -40 9 -22 0 -40 4 -40 9 0 5 -9 7 -20 4 -12 -3 -20 0 -20 6 0 7 -8 11
-18 9 -24 -4 -72 28 -72 49 0 9 -3 14 -6 10 -11 -11 -34 21 -34 47 0 14 -4 28
-10 31 -13 8 -13 65 0 65 6 0 10 16 10 35 0 19 5 35 10 35 6 0 10 6 10 14 0
21 76 99 91 94 7 -2 24 6 36 18 12 12 38 28 58 35 19 7 35 17 35 22 0 5 6 7
13 4 7 -3 21 1 32 9 10 8 25 14 33 14 7 0 20 6 27 13 35 30 45 37 58 37 7 0
17 3 20 6 14 14 217 -1 217 -16 0 -3 6 -7 13 -8 58 -8 87 -15 87 -22 0 -5 13
-11 29 -15 15 -3 38 -15 50 -26 12 -11 26 -17 32 -14 5 4 19 -3 30 -16 10 -12
27 -23 38 -24 15 -1 47 -21 88 -55 7 -5 15 -10 19 -10 3 0 20 -10 37 -22 18
-13 39 -23 47 -23 8 0 21 -4 28 -9 19 -12 136 -10 140 2 2 6 10 8 18 5 7 -3
16 2 20 10 3 9 14 14 25 12 10 -2 19 0 19 6 0 5 9 9 20 9 11 0 20 6 20 14 0 8
9 18 20 21 28 9 65 47 81 84 8 17 17 31 21 31 5 0 8 7 8 15 0 8 5 15 10 15 6
0 10 7 10 15 0 8 5 15 10 15 6 0 10 9 10 20 0 11 5 20 10 20 6 0 10 9 10 19 0
11 5 23 10 26 6 4 10 83 10 206 0 136 3 199 11 199 6 0 9 6 6 13 -2 6 -10 11
-17 9 -7 -1 -22 3 -34 11 -19 13 -25 11 -66 -20z m-1190 -2273 c0 -5 -7 -10
-15 -10 -8 0 -15 5 -15 10 0 6 7 10 15 10 8 0 15 -4 15 -10z"/>
</g>
</svg>
